<?xml version="1.0" encoding="iso-8859-1"?>
<!-- Generator: Adobe Illustrator 19.0.0, SVG Export Plug-In . SVG Version: 6.00 Build 0)  -->
<svg version="1.1" id="Capa_1" xmlns="http://www.w3.org/2000/svg" xmlns:xlink="http://www.w3.org/1999/xlink" x="0px" y="0px"
	 viewBox="0 0 511.978 511.978" style="enable-background:new 0 0 511.978 511.978;" xml:space="preserve">
<g>
	<g transform="translate(1 1)">
		<g>
			
				<rect x="183.399" y="151.39" transform="matrix(0.7071 0.7071 -0.7071 0.7071 186.7004 -113.48)" style="fill:#CFD8DC;" width="93.867" height="34.475"/>
			<path style="fill:#CFD8DC;" d="M485.431,154.353c0.052,55.699-40.548,103.101-95.593,111.61
				c-55.045,8.509-108.063-24.422-124.832-77.536s7.729-110.518,57.68-135.159s110.41-9.144,142.35,36.487
				C478.299,108.687,485.419,131.238,485.431,154.353z"/>
		</g>
		<path style="fill:#F4F4F4;" d="M471.948,128.753c0.015,49.207-31.899,92.734-78.832,107.519
			c-46.933,14.785-98.032-2.591-126.224-42.921c-19.607-53.173,3.312-112.637,53.535-138.895s112.133-11.145,144.609,35.3
			C469.613,102.248,471.953,115.449,471.948,128.753z"/>
		<path style="fill:#C52828;" d="M428.343,290.289c-34.265,14.006-72.568,14.494-107.179,1.365l68.608-68.608h0.085l2.219-2.304
			l41.557,41.557c4.076,4.01,5.884,9.788,4.822,15.406C437.393,283.324,433.601,288.043,428.343,290.289z"/>
		<path style="fill:#F44335;" d="M406.753,273.308c-24.189,9.91-50.608,13.095-76.459,9.216l59.477-59.477h0.085l13.739,13.739
			l8.448,8.533c4.076,4.01,5.884,9.788,4.822,15.406C415.804,266.343,412.012,271.062,406.753,273.308z"/>
		<path style="fill:#37474F;" d="M392.503,220.316l-94.805,94.891l-85.333-85.333l94.805-94.805
			c11.19-11.226,26.389-17.536,42.24-17.536c15.851,0,31.05,6.31,42.24,17.536l0.853,0.768c2.617,2.622,4.987,5.478,7.083,8.533
			C415.845,168.081,412.866,200.019,392.503,220.316L392.503,220.316z"/>
		<path style="fill:#607D8B;" d="M382.604,194.289l-94.805,94.805l-67.328-67.328l86.699-86.699
			c11.19-11.226,26.389-17.536,42.24-17.536c15.851,0,31.05,6.31,42.24,17.536l0.853,0.768c2.617,2.622,4.987,5.478,7.083,8.533
			C401.957,162.741,395.686,181.174,382.604,194.289L382.604,194.289z"/>
		<path style="fill:#D84315;" d="M304.439,342.513L107.575,496.796c-10.326,8.186-25.145,7.342-34.475-1.963l-40.363-40.448
			c-1.781-1.8-3.303-3.839-4.523-6.059c-4.879-9.108-3.873-20.245,2.56-28.331l154.197-196.864c4.725-5.361,11.457-8.531,18.6-8.757
			c7.143-0.226,14.062,2.511,19.117,7.562l69.888,69.888c0,0.085,0.085,0.085,0.085,0.171l12.971,12.885
			c5.032,5.048,7.758,11.95,7.532,19.074C312.938,331.079,309.781,337.794,304.439,342.513z"/>
		<path style="fill:#FF5722;" d="M286.86,323.398L89.996,477.681c-10.294,8.189-25.094,7.344-34.389-1.963l-27.392-27.392
			c-4.879-9.108-3.873-20.245,2.56-28.331l154.197-196.864c4.725-5.361,11.457-8.531,18.6-8.757
			c7.143-0.226,14.062,2.511,19.117,7.562l69.888,69.888c0,0.085,0.085,0.085,0.085,0.171
			C298.171,302.553,295.777,315.506,286.86,323.398z"/>
		<g>
			<polygon style="fill:#CFD8DC;" points="282.423,281.67 245.9,318.278 209.292,281.67 245.9,245.148 			"/>
			<path style="fill:#CFD8DC;" d="M245.9,318.278l-30.72,30.635c-9.994,9.984-26.187,9.984-36.181,0l-0.341-0.341
				c-9.984-10.028-9.984-26.239,0-36.267l30.635-30.635L245.9,318.278z"/>
		</g>
		<circle style="fill:#F4F4F4;" cx="343.354" cy="184.205" r="17.237"/>
		<polygon style="fill:#607D8B;" points="227.553,104.945 166.625,165.958 149.388,146.417 138.124,133.617 126.519,120.476 
			115.255,107.761 103.735,94.62 92.385,81.82 75.233,62.364 123.959,13.553 		"/>
		<path style="fill:#CFD8DC;" d="M81.469,446.31l-0.241-0.241c-6.665-6.665-6.665-17.471,0-24.136l48.996-48.996
			c6.665-6.665,17.471-6.665,24.136,0l0.241,0.241c6.665,6.665,6.665,17.471,0,24.136l-48.996,48.996
			C98.94,452.975,88.134,452.975,81.469,446.31z"/>
	</g>
	<g>
		<path d="M426.139,263.319c-3.928,0.006-7.353-2.672-8.295-6.485c-0.942-3.814,0.841-7.778,4.32-9.602
			c47.425-24.96,67.956-81.99,47.323-131.451s-75.606-74.995-126.709-58.853s-81.436,68.62-69.914,120.959
			c0.659,2.979-0.323,6.084-2.576,8.142s-5.433,2.756-8.341,1.831s-5.1-3.333-5.749-6.314
			c-13.337-60.905,21.995-121.923,81.456-140.676s123.406,10.957,147.422,68.494c24.016,57.537,0.169,123.891-54.978,152.978
			C428.877,262.984,427.518,263.32,426.139,263.319L426.139,263.319z"/>
		<path d="M307.797,315.599c-2.264,0.003-4.435-0.897-6.033-2.5l-85.309-85.304c-1.601-1.6-2.5-3.77-2.5-6.033
			c0-2.263,0.899-4.433,2.5-6.033l85.725-85.721c12.802-12.803,30.165-19.996,48.271-19.996c18.105,0,35.469,7.193,48.271,19.996
			l0.842,0.846c12.798,12.802,19.986,30.164,19.983,48.266c-0.003,18.102-7.198,35.461-20,48.259l-85.716,85.721
			C312.232,314.702,310.061,315.601,307.797,315.599L307.797,315.599z M234.556,221.761l73.242,73.238l79.683-79.688
			c9.604-9.601,15-22.624,15-36.204c0-13.58-5.396-26.603-15-36.204l-0.842-0.846c-19.998-19.979-52.403-19.971-72.392,0.017
			L234.556,221.761z"/>
		<path d="M92.439,511.978c-9.129,0.004-17.885-3.626-24.333-10.087l-40.442-40.442l0,0c-12.39-12.372-13.492-32.083-2.558-45.758
			l154.183-196.838c6.311-7.305,15.378-11.654,25.025-12.004c9.486-0.295,18.672,3.343,25.383,10.054l82.95,82.95
			c6.715,6.711,10.355,15.9,10.058,25.389c-0.297,9.489-4.504,18.432-11.625,24.711L113.797,504.499
			C107.735,509.348,100.202,511.986,92.439,511.978z M39.731,449.382l40.442,40.442c6.23,6.238,16.155,6.792,23.042,1.288
			L300.18,336.836c3.423-3.215,5.397-7.679,5.472-12.374c0.075-4.695-1.755-9.22-5.072-12.543l-82.95-82.95
			c-3.38-3.38-8.006-5.212-12.784-5.062c-4.777,0.15-9.28,2.269-12.441,5.854L38.489,426.278
			C32.944,433.167,33.48,443.127,39.731,449.382z"/>
		<path d="M198.114,365.911c-9.052,0.016-17.736-3.575-24.133-9.979l-0.358-0.358c-13.3-13.342-13.3-34.929,0-48.271l67.209-67.204
			c1.6-1.601,3.77-2.5,6.033-2.5l0,0c2.263,0,4.434,0.899,6.033,2.5l36.559,36.563c1.601,1.6,2.5,3.77,2.5,6.033
			c0,2.263-0.899,4.433-2.5,6.033l-67.2,67.204C215.856,362.336,207.168,365.927,198.114,365.911z M185.689,343.507l0.358,0.358
			c6.673,6.65,17.468,6.65,24.142,0l61.167-61.171l-24.492-24.496l-61.175,61.171C179.039,326.041,179.039,336.835,185.689,343.507
			L185.689,343.507z"/>
		<path d="M246.864,327.786c-2.264,0.003-4.435-0.897-6.033-2.5l-36.558-36.558c-2.156-2.155-2.997-5.297-2.208-8.242
			c0.789-2.944,3.089-5.244,6.033-6.033c2.944-0.789,6.086,0.053,8.242,2.208l36.558,36.559c2.44,2.441,3.169,6.11,1.849,9.298
			C253.426,325.706,250.315,327.785,246.864,327.786L246.864,327.786z"/>
		<path d="M373.989,310.732c-18.739-0.006-37.322-3.417-54.842-10.067c-2.851-1.081-4.908-3.6-5.398-6.609
			c-0.489-3.009,0.664-6.051,3.025-7.979c2.361-1.928,5.572-2.451,8.423-1.37c32.587,12.386,68.665,11.914,100.917-1.321
			c2.546-1.044,4.386-3.311,4.883-6.017c0.599-2.917-0.306-5.941-2.408-8.05l-41.517-41.525c-3.332-3.332-3.332-8.735,0-12.067
			c3.332-3.332,8.735-3.332,12.067,0l41.517,41.521c6.152,6.145,8.809,14.967,7.075,23.487c-1.638,8.303-7.331,15.232-15.158,18.45
			C413.979,306.801,394.081,310.722,373.989,310.732z"/>
		<path d="M344.356,210.965c-10.42,0.001-19.815-6.275-23.804-15.902c-3.989-9.626-1.787-20.708,5.579-28.078l0,0l0.009-0.004
			v-0.004c10.198-9.735,26.248-9.731,36.442,0.009c7.367,7.37,9.569,18.452,5.58,28.078
			C364.171,204.691,354.776,210.967,344.356,210.965L344.356,210.965z M344.356,176.499c-2.306-0.008-4.518,0.909-6.142,2.546
			l-0.009,0.009c-1.633,1.629-2.55,3.841-2.55,6.148s0.917,4.518,2.55,6.148c3.44,3.289,8.858,3.291,12.3,0.004
			c2.486-2.489,3.228-6.23,1.883-9.48S347.873,176.503,344.356,176.499L344.356,176.499z"/>
		<path d="M240.772,212.015c-2.263,0-4.434-0.899-6.033-2.5l-54.842-54.842c-1.601-1.6-2.5-3.77-2.5-6.033s0.899-4.433,2.5-6.033
			l24.375-24.375c1.6-1.601,3.77-2.5,6.033-2.5l0,0c2.263,0,4.434,0.899,6.033,2.5l54.833,54.842c1.601,1.6,2.5,3.77,2.5,6.033
			s-0.899,4.433-2.5,6.033l-24.367,24.375C245.206,211.116,243.035,212.015,240.772,212.015z M197.997,148.64l42.775,42.771
			l12.3-12.304l-42.767-42.775L197.997,148.64z"/>
		<path d="M167.647,175.453l-0.267-0.004c-2.354-0.075-4.574-1.118-6.133-2.883l-91.4-103.583c-2.98-3.379-2.82-8.494,0.367-11.679
			l48.75-48.75c3.187-3.187,8.302-3.347,11.683-0.367l103.583,91.4c1.762,1.561,2.802,3.781,2.875,6.134
			c0.073,2.353-0.829,4.632-2.492,6.299l-60.933,60.933C172.081,174.554,169.911,175.453,167.647,175.453L167.647,175.453z
			 M87.947,63.703l80.092,90.758l48.083-48.087L125.364,26.29L87.947,63.703z"/>
		<path d="M155.464,187.64c-3.451-0.001-6.562-2.08-7.882-5.268s-0.591-6.858,1.849-9.298l85.308-85.308
			c2.156-2.156,5.297-2.997,8.242-2.208c2.944,0.789,5.244,3.089,6.033,6.033c0.789,2.944-0.053,6.086-2.208,8.242l-85.308,85.308
			C159.899,186.743,157.728,187.643,155.464,187.64L155.464,187.64z"/>
		<path d="M70.156,77.961c-3.451-0.001-6.562-2.08-7.882-5.268c-1.32-3.188-0.591-6.858,1.849-9.298l60.933-60.933
			c3.338-3.296,8.711-3.28,12.029,0.038c3.317,3.317,3.334,8.69,0.038,12.029L76.189,75.461
			C74.591,77.064,72.419,77.964,70.156,77.961z"/>
		<path d="M144.797,149.557c-3.451-0.001-6.562-2.08-7.882-5.268c-1.32-3.188-0.591-6.858,1.849-9.298l35.042-35.038
			c3.332-3.332,8.735-3.332,12.067,0c3.332,3.332,3.332,8.735,0,12.067l-35.042,35.038
			C149.232,148.66,147.061,149.56,144.797,149.557L144.797,149.557z"/>
		<path d="M121.947,123.661c-3.451-0.001-6.562-2.08-7.882-5.268c-1.32-3.188-0.591-6.858,1.849-9.298l33.517-33.513
			c2.156-2.156,5.297-2.997,8.242-2.208c2.944,0.789,5.244,3.089,6.033,6.033s-0.053,6.086-2.208,8.242l-33.517,33.513
			C126.382,122.764,124.211,123.664,121.947,123.661L121.947,123.661z"/>
		<path d="M99.097,97.765c-3.451-0.001-6.562-2.08-7.882-5.268c-1.32-3.188-0.591-6.858,1.849-9.298l31.991-31.991
			c3.332-3.332,8.735-3.332,12.067,0c3.332,3.332,3.332,8.735,0,12.067l-31.991,31.991C103.532,96.868,101.361,97.768,99.097,97.765
			z"/>
		<path d="M94.531,460.849c-6.788,0.011-13.3-2.68-18.1-7.479l-0.25-0.246c-9.967-10.007-9.967-26.189,0-36.196l48.991-48.988
			c10.082-9.952,26.307-9.9,36.324,0.118c10.017,10.017,10.07,26.242,0.118,36.324l-48.983,48.983
			C107.832,458.166,101.319,460.859,94.531,460.849z M88.239,441.044l0.208,0.2c1.598,1.617,3.774,2.531,6.048,2.541
			c2.274,0.009,4.457-0.887,6.069-2.491l48.983-48.979c3.287-3.417,3.234-8.837-0.119-12.19c-3.353-3.353-8.772-3.406-12.19-0.119
			L88.256,428.99C84.938,432.321,84.931,437.704,88.239,441.044L88.239,441.044z"/>
	</g>
</g>
<g>
</g>
<g>
</g>
<g>
</g>
<g>
</g>
<g>
</g>
<g>
</g>
<g>
</g>
<g>
</g>
<g>
</g>
<g>
</g>
<g>
</g>
<g>
</g>
<g>
</g>
<g>
</g>
<g>
</g>
</svg>
